<svg width="1387" height="207" viewBox="0 0 1387 207" fill="none" xmlns="http://www.w3.org/2000/svg">
<path fill-rule="evenodd" clip-rule="evenodd" d="M0 0L57.4305 7.77746C115.945 15.5549 230.805 31.1098 346.75 57.4335C462.695 84.3555 577.555 122.645 693.5 130.422C809.445 138.199 924.305 114.867 1040.25 107.688C1156.19 99.9104 1271.06 107.688 1329.57 111.277L1387 114.867V207H1329.57C1271.06 207 1156.19 207 1040.25 207C924.305 207 809.445 207 693.5 207C577.555 207 462.695 207 346.75 207C230.805 207 115.945 207 57.4305 207H0V0Z" fill="#4D65AB" fill-opacity="0.8"/>
<path fill-rule="evenodd" clip-rule="evenodd" d="M0 82.8L46.2333 99.36C92.4667 115.92 184.933 149.04 277.4 140.76C369.867 132.48 462.333 82.8 554.8 49.68C647.267 16.56 739.733 0 832.2 0C924.667 0 1017.13 16.56 1109.6 45.54C1202.07 74.52 1294.53 115.92 1340.77 136.62L1387 157.32V207H1340.77C1294.53 207 1202.07 207 1109.6 207C1017.13 207 924.667 207 832.2 207C739.733 207 647.267 207 554.8 207C462.333 207 369.867 207 277.4 207C184.933 207 92.4667 207 46.2333 207H0V82.8Z" fill="#701078" fill-opacity="0.8"/>
</svg>
